<?xml version="1.0" standalone="no"?><!DOCTYPE svg PUBLIC "-//W3C//DTD SVG 1.1//EN" "http://www.w3.org/Graphics/SVG/1.1/DTD/svg11.dtd"><svg t="1756650171584" class="icon" viewBox="0 0 1024 1024" version="1.1" xmlns="http://www.w3.org/2000/svg" p-id="10407" xmlns:xlink="http://www.w3.org/1999/xlink" width="200" height="200"><path d="M496 496m-448 0a448 448 0 1 0 896 0 448 448 0 1 0-896 0Z" fill="#85CBF8" p-id="10408"></path><path d="M496 48v896a448 448 0 0 0 0-896z" fill="#7BBEEB" p-id="10409"></path><path d="M861.6 781.12a462.56 462.56 0 0 0 0-570.4 14.88 14.88 0 0 0-1.6-1.76A463.2 463.2 0 0 0 132.96 208a16 16 0 0 0-2.4 2.4v1.12a462.56 462.56 0 0 0 0 569.92v0.96a16 16 0 0 0 3.2 3.52A463.2 463.2 0 0 0 859.84 784a15.04 15.04 0 0 0 1.6-1.6z m-38.24-566.4a504.64 504.64 0 0 1-106.88 43.84C691.04 180.16 653.76 118.4 609.44 80a432 432 0 0 1 213.92 134.72zM480 65.28V288a814.72 814.72 0 0 1-173.28-20.96C344.48 152.16 408.96 75.36 480 65.28z m32 0c71.04 10.08 135.52 86.88 173.28 201.44A814.88 814.88 0 0 1 512 288zM382.56 80c-44.32 39.2-81.76 100.96-107.04 179.2a504.48 504.48 0 0 1-106.88-43.84A432 432 0 0 1 382.56 80zM148.32 240a530.56 530.56 0 0 0 118.08 49.28 736 736 0 0 0-16 76.48 16 16 0 0 0 12.96 18.24h2.56a16 16 0 0 0 16-13.44 692.16 692.16 0 0 1 16-73.12A845.6 845.6 0 0 0 480 320v48a16 16 0 0 0 32 0v-48a845.6 845.6 0 0 0 182.4-22.4 692.16 692.16 0 0 1 16 73.12 16 16 0 0 0 32-5.12 737.44 737.44 0 0 0-16-76.32A530.72 530.72 0 0 0 843.68 240a430.88 430.88 0 0 1 0 512 531.04 531.04 0 0 0-118.24-49.28c5.28-19.2 9.92-39.2 13.76-60a16 16 0 1 0-32-5.76c-3.68 20-8 39.04-12.96 57.44A845.44 845.44 0 0 0 512 672v-32a16 16 0 0 0-32 0v32a845.6 845.6 0 0 0-182.56 22.4 671.52 671.52 0 0 1-12.96-57.44 16 16 0 1 0-32 5.76c3.84 20.8 8.48 40.8 13.76 60A530.88 530.88 0 0 0 148.32 752a430.88 430.88 0 0 1 0-512zM480 926.72c-71.52-9.92-135.68-85.92-173.44-201.44A814.56 814.56 0 0 1 480 704z m32 0V704a814.72 814.72 0 0 1 173.44 21.12C647.68 840.8 583.52 916.8 512 926.72z m-343.36-149.44a504.96 504.96 0 0 1 107.2-43.84c25.6 78.24 63.2 140.32 107.68 179.52a432 432 0 0 1-214.88-135.68zM608 913.12c44.48-39.2 82.08-101.28 107.68-179.52a504.8 504.8 0 0 1 107.2 43.84A432 432 0 0 1 608 913.12z" fill="#8D6C9F" p-id="10410"></path><path d="M176 580.64a16 16 0 0 0 16 11.36 16 16 0 0 0 16-10.4l32-88 32.96 88A16 16 0 0 0 288 592a16 16 0 0 0 14.72-11.36l48-160a16 16 0 0 0-30.72-9.28l-34.4 114.56-32-83.52a16 16 0 0 0-29.92 0l-32 83.52L160 411.36a16 16 0 0 0-32 9.28zM432 580.64a16 16 0 0 0 16 11.36 16 16 0 0 0 16-10.4l32-88 32.96 88A16 16 0 0 0 544 592a16 16 0 0 0 14.72-11.36l48-160a16 16 0 0 0-30.72-9.28l-34.4 114.56-32-83.52a16 16 0 0 0-29.92 0l-32 83.52L416 411.36a16 16 0 0 0-30.72 9.12zM688 580.64a16 16 0 0 0 16 11.36 16 16 0 0 0 16-10.4l32-88 32.96 88A16 16 0 0 0 800 592a16 16 0 0 0 14.72-11.36l48-160a16 16 0 0 0-30.72-9.28l-34.4 114.56-32-83.52a16 16 0 0 0-29.92 0l-32 83.52L672 411.36a16 16 0 1 0-30.72 9.12z" fill="#FFFFFF" p-id="10411"></path></svg>